<?xml version="1.0" standalone="no"?>
<!DOCTYPE svg PUBLIC "-//W3C//DTD SVG 20010904//EN"
 "http://www.w3.org/TR/2001/REC-SVG-20010904/DTD/svg10.dtd">
<svg version="1.0" xmlns="http://www.w3.org/2000/svg"
 width="260.000000pt" height="260.000000pt" viewBox="0 0 260.000000 260.000000"
 preserveAspectRatio="xMidYMid meet">

<g transform="translate(0.000000,260.000000) scale(0.100000,-0.100000)"
fill="#000000" stroke="none">
<path d="M0 2189 l0 -412 38 6 c29 5 40 3 48 -11 14 -23 -12 -47 -51 -47 -32
0 -35 -9 -20 -54 5 -16 4 -21 -4 -17 -8 5 -11 -62 -11 -242 l0 -249 113 -23
c61 -12 121 -24 132 -26 52 -10 83 -16 115 -25 l35 -8 1 -176 c2 -172 1 -175
-20 -175 -23 1 -88 28 -70 29 13 1 14 51 2 51 -5 0 -8 4 -8 9 0 5 -7 25 -15
45 -8 20 -15 38 -15 41 0 3 -7 19 -15 35 -8 16 -15 32 -15 35 0 3 0 6 -1 8 -1
1 -6 29 -13 62 l-11 59 -75 17 c-41 10 -90 20 -107 24 l-33 6 0 -576 0 -575
118 0 118 0 127 188 c69 104 135 208 146 231 10 24 32 55 47 69 16 15 46 47
67 71 20 25 37 39 37 32 0 -9 5 -9 20 -1 25 13 27 34 3 26 -13 -4 -11 0 6 14
13 11 19 20 15 20 -5 0 24 33 64 73 40 40 71 80 69 88 -2 8 -2 11 0 7 3 -5 8
-8 12 -8 17 0 192 138 221 175 34 43 64 57 93 43 14 -7 25 -4 41 11 12 12 26
18 31 14 4 -5 6 -1 3 7 -6 18 14 40 36 40 9 0 16 7 16 15 0 18 -16 20 -23 3
-3 -7 -6 -3 -6 10 -1 12 4 22 9 22 6 0 10 6 10 13 0 14 56 43 100 51 14 3 3 3
-25 1 -36 -2 -55 -9 -70 -27 -12 -12 -31 -32 -43 -42 l-22 -20 5 40 c4 21 12
59 20 85 10 36 10 52 0 82 -9 25 -10 50 -4 79 22 104 22 114 8 100 -18 -17
-87 -230 -77 -240 4 -4 3 -25 -3 -45 -8 -28 -7 -42 2 -53 9 -12 6 -14 -20 -14
-29 0 -31 2 -31 35 0 20 7 52 16 73 8 20 22 84 30 142 21 152 39 211 70 238
17 15 34 22 47 18 13 -3 26 2 33 12 12 16 13 16 14 -2 0 -13 5 -16 18 -11 9 4
28 9 42 12 17 3 11 -3 -19 -19 -30 -16 -46 -30 -48 -46 -2 -14 1 -21 7 -17 5
3 10 14 10 24 0 12 9 20 25 23 16 3 25 1 25 -7 0 -7 9 -15 20 -18 17 -4 20 0
20 34 0 32 -5 41 -25 51 -13 6 -27 20 -31 30 -3 11 -15 23 -27 28 -16 6 -17 9
-6 9 14 1 16 7 8 39 -21 89 4 187 54 213 12 6 29 20 38 31 13 17 20 19 35 10
16 -10 16 -11 3 -12 -24 0 -33 -30 -10 -30 27 0 33 -11 13 -26 -14 -10 -15
-16 -5 -32 10 -17 8 -21 -13 -31 -19 -8 -24 -18 -24 -45 0 -19 -5 -38 -10 -41
-6 -3 -7 -18 -4 -31 5 -19 3 -25 -8 -22 -7 2 -14 -1 -15 -7 -1 -5 9 -8 24 -7
17 3 23 0 18 -8 -4 -6 -1 -18 6 -26 11 -13 9 -14 -14 -9 -31 8 -37 -8 -9 -24
9 -5 16 -12 15 -15 -6 -14 11 -67 23 -77 8 -6 15 -21 15 -33 1 -17 2 -17 6 -3
5 21 17 22 32 3 7 -8 25 -19 41 -24 24 -9 28 -8 23 4 -7 18 1 18 37 -1 l30
-16 1 38 c1 36 1 34 13 -17 7 -30 20 -71 30 -90 19 -35 19 -35 -1 -17 -20 18
-21 17 -19 -25 1 -36 -2 -43 -18 -41 -10 1 -28 -7 -39 -18 -16 -15 -18 -21 -8
-33 10 -11 9 -16 -2 -23 -8 -4 -17 -17 -21 -29 -5 -17 0 -23 34 -37 47 -18 51
-38 14 -72 l-26 -25 26 -10 c41 -15 31 -18 -20 -5 -25 6 -49 16 -53 23 -3 6
-15 11 -26 12 -11 0 -48 3 -83 6 -54 5 -61 4 -56 -10 5 -12 10 -14 19 -6 16
14 125 -8 125 -26 0 -7 6 -15 13 -17 7 -3 5 -6 -5 -6 -10 -1 -18 6 -18 14 0 8
-4 15 -10 15 -13 0 -13 -6 1 -32 10 -18 9 -20 -6 -15 -9 4 -19 7 -21 7 -3 0
-2 5 2 11 18 29 -68 40 -94 11 -10 -9 -14 -13 -9 -8 14 19 7 24 -30 19 -57 -6
-68 -12 -55 -25 8 -8 15 -8 27 2 10 8 15 9 15 1 0 -6 -4 -11 -10 -11 -5 0 -10
-5 -10 -11 0 -6 9 -8 22 -4 17 6 20 4 15 -9 -4 -10 -1 -16 9 -16 14 0 14 -2 0
-15 -8 -8 -22 -15 -30 -15 -17 0 -22 -15 -7 -24 5 -3 7 -15 4 -26 -3 -13 0
-20 8 -20 16 0 129 -57 144 -72 7 -7 1 -9 -17 -6 -33 6 -36 -5 -7 -26 l21 -14
-23 -5 c-24 -4 -24 -4 1 -6 14 -1 32 -6 40 -11 10 -6 3 -8 -22 -3 -34 5 -38 3
-38 -16 0 -12 -4 -19 -10 -16 -14 9 -12 -28 3 -45 10 -12 9 -12 -5 -1 -21 15
-104 11 -101 -6 2 -6 -7 -15 -18 -18 -14 -5 -18 -12 -14 -26 5 -14 0 -22 -17
-28 -23 -10 -23 -10 4 -10 14 -1 28 5 31 12 2 6 8 9 12 5 5 -5 0 -17 -10 -29
-14 -14 -16 -22 -8 -27 8 -5 9 -13 3 -22 -6 -8 -10 -12 -10 -7 0 13 -80 -73
-80 -87 0 -7 -6 -19 -14 -25 -8 -7 -12 -20 -9 -29 3 -11 -8 -29 -29 -47 -61
-54 -65 -57 -74 -44 -4 8 -3 9 4 5 8 -5 12 3 12 24 0 31 20 77 49 113 8 9 11
17 8 17 -4 0 2 15 13 33 25 41 25 57 0 57 -11 0 -20 4 -20 9 0 5 9 7 20 4 17
-4 20 0 20 25 0 28 15 72 41 125 11 21 1 22 -27 3 -11 -8 -36 -14 -55 -12 -27
2 -38 9 -54 37 -11 20 -30 48 -43 65 l-23 29 16 -32 c20 -42 19 -59 -6 -94
-18 -26 -59 -44 -44 -19 13 21 -18 9 -37 -15 -18 -23 -67 -37 -53 -15 10 16
-5 12 -36 -11 -16 -11 -29 -18 -29 -14 0 3 -12 -6 -27 -20 -16 -15 -39 -32
-53 -40 -14 -7 -40 -29 -58 -49 -18 -20 -37 -36 -43 -36 -6 0 -7 -4 -4 -10 3
-5 1 -10 -4 -10 -6 0 -20 -9 -32 -21 -15 -15 -24 -17 -33 -10 -9 8 -15 1 -25
-25 -7 -21 -18 -33 -25 -31 -15 6 -39 -29 -31 -43 4 -6 2 -10 -3 -10 -5 0 -12
-14 -14 -30 -3 -17 -1 -30 3 -30 11 0 -1 -31 -21 -55 -9 -11 -22 -34 -29 -52
-7 -17 -23 -41 -37 -54 -13 -12 -24 -30 -24 -40 0 -9 -7 -19 -15 -23 -8 -3
-20 -17 -25 -31 -5 -14 -14 -25 -20 -25 -6 0 -9 -4 -5 -9 3 -5 1 -12 -5 -16
-5 -3 -10 -10 -10 -16 0 -13 1127 -11 1135 1 4 6 11 10 16 10 6 0 7 -5 4 -10
-5 -7 19 -10 72 -8 67 3 78 5 77 20 -1 11 5 18 17 18 10 0 19 7 19 15 0 8 9
15 20 15 11 0 20 4 20 8 0 9 44 32 62 32 6 0 -1 -9 -15 -20 -14 -11 -30 -20
-35 -20 -6 0 -10 -9 -9 -20 1 -11 5 -20 9 -20 4 0 8 -7 8 -15 0 -19 7 -19 27
1 15 14 17 14 25 0 11 -20 41 -21 71 -2 12 8 45 17 72 20 36 4 44 3 28 -4 -13
-5 -34 -11 -48 -13 -13 -1 -27 -6 -31 -10 -4 -4 78 -7 183 -7 l191 0 -11 24
c-11 22 -86 76 -107 76 -6 0 -10 12 -10 26 0 24 2 25 18 13 9 -7 24 -22 33
-32 15 -19 16 -17 23 31 3 27 13 55 21 62 8 7 15 22 15 34 1 30 34 66 62 67
12 0 17 3 11 6 -7 2 -13 10 -13 17 0 7 -9 21 -19 33 -24 25 -17 69 15 89 27
18 59 15 60 -6 1 -8 2 -25 2 -37 2 -15 7 -21 17 -17 11 5 12 10 4 26 -14 27
-10 29 29 12 l34 -14 -7 -67 c-6 -64 -5 -66 9 -43 27 45 35 68 29 89 -3 12 -1
21 6 21 6 0 11 -11 11 -25 0 -14 4 -25 9 -25 4 0 6 11 3 25 -3 18 0 25 12 25
16 0 21 -16 17 -54 -1 -11 2 -22 7 -25 4 -3 13 -18 19 -33 10 -22 10 -26 -1
-22 -7 3 -13 -2 -13 -11 0 -8 9 -15 19 -15 10 0 18 -5 18 -11 0 -6 -6 -9 -13
-6 -13 5 -43 -31 -39 -46 1 -5 -9 -18 -23 -29 -30 -24 -32 -34 -5 -41 11 -3
20 -13 20 -22 0 -9 5 -13 10 -10 6 4 16 3 23 -3 19 -14 49 -23 42 -12 -3 6 1
13 9 16 13 5 16 25 16 106 0 77 -3 97 -12 92 -9 -6 -9 -3 1 9 10 13 11 24 2
48 -13 39 -14 49 -1 29 6 -10 10 140 10 434 0 412 -1 447 -16 435 -14 -12 -16
-11 -12 6 2 11 10 19 16 17 7 -1 12 9 12 22 0 22 -2 23 -24 13 -13 -7 -22 -15
-20 -18 2 -4 -10 -9 -27 -13 -26 -5 -36 -1 -55 19 -13 14 -18 25 -11 23 6 -1
30 2 52 7 22 5 49 9 60 9 20 1 20 9 23 639 l2 637 -1020 0 -1020 -1 -2 -77 -2
-77 -6 75 c-4 41 -5 4 -2 -82 3 -102 1 -158 -6 -158 -6 0 -13 65 -17 160 -4
88 -11 160 -16 160 -5 0 -7 -19 -4 -42 2 -24 7 -96 10 -160 l5 -116 -28 -6
c-54 -12 -172 -16 -172 -6 0 6 20 10 44 10 24 0 57 3 73 6 26 5 29 9 25 37 -7
57 -9 59 -41 42 -16 -8 -32 -24 -36 -35 -3 -11 -12 -20 -20 -20 -7 0 -20 -3
-28 -6 -18 -7 -26 43 -28 166 -2 142 13 130 -160 130 l-149 0 0 -411z m1802
261 c-42 -26 -56 -26 -17 0 17 11 35 20 40 20 6 0 -5 -9 -23 -20z m88 16 c0
-2 -11 -6 -25 -8 -14 -3 -25 -1 -25 3 0 5 11 9 25 9 14 0 25 -2 25 -4z m100
-67 c0 -6 -4 -6 -12 1 -7 6 -22 17 -33 26 -17 13 -15 12 13 -1 17 -8 32 -20
32 -26z m-216 -34 c-7 -16 -24 -21 -24 -6 0 8 7 13 27 20 1 1 0 -6 -3 -14z
m165 -69 c-22 -20 -22 -20 -6 0 9 11 17 27 18 35 0 11 2 11 6 0 3 -7 -5 -23
-18 -35z m-556 3 c49 -22 77 -114 53 -170 -6 -13 -1 -16 21 -15 23 1 29 7 38
42 9 36 60 124 72 124 2 0 2 -9 -2 -20 -5 -15 -3 -18 8 -14 15 5 31 40 28 58
-1 5 5 4 13 -3 13 -11 14 -16 3 -32 -8 -10 -12 -36 -10 -58 3 -45 -2 -51 -52
-53 -34 -1 -42 -13 -36 -50 0 -5 -4 -8 -9 -8 -15 0 -22 -1 -67 -15 -35 -11
-43 -11 -43 0 0 7 5 15 11 17 7 2 9 13 4 27 -6 20 -8 21 -19 5 -7 -9 -11 -27
-8 -39 3 -16 -2 -27 -17 -34 -12 -7 -21 -20 -21 -29 0 -10 -4 -22 -10 -28 -12
-12 -32 -162 -24 -175 3 -5 1 -17 -5 -26 -7 -13 -9 8 -6 67 3 88 23 159 57
196 18 20 18 22 -13 79 -33 61 -36 118 -9 150 15 18 13 18 43 4z m481 -23 c-3
-15 -8 -25 -11 -23 -2 3 -1 17 3 31 3 15 8 25 11 23 2 -3 1 -17 -3 -31z m5
-68 c-9 -16 -14 -19 -17 -9 -2 7 2 17 9 22 20 13 21 11 8 -13z m31 -48 c0 -27
-4 -50 -9 -50 -5 0 -8 16 -6 35 2 21 -1 33 -7 29 -5 -3 -4 3 4 15 7 12 14 21
15 21 2 0 3 -22 3 -50z m-306 -33 c-3 -9 -12 -13 -20 -10 -8 3 -14 -1 -14 -10
0 -16 -27 -43 -36 -34 -11 11 27 66 48 69 29 5 30 4 22 -15z m288 -59 c-8 -8
-9 -4 -5 13 4 13 8 18 11 10 2 -7 -1 -18 -6 -23z m-964 5 c-16 -2 -40 -2 -55
0 -16 2 -3 4 27 4 30 0 43 -2 28 -4z m467 -49 c-23 -17 -32 -10 -15 11 7 8 17
12 23 8 6 -4 3 -11 -8 -19z m207 1 c6 -29 -7 -34 -15 -6 -4 17 0 31 9 31 1 0
4 -11 6 -25z m-599 -22 c-7 -2 -21 -2 -30 0 -10 3 -4 5 12 5 17 0 24 -2 18 -5z
m307 -82 c0 -6 -4 -13 -10 -16 -5 -3 -10 1 -10 9 0 9 5 16 10 16 6 0 10 -4 10
-9z m-27 -56 c-3 -9 -8 -14 -10 -11 -3 3 -2 9 2 15 9 16 15 13 8 -4z m243 -17
c-3 -13 -6 -27 -6 -32 0 -5 -7 -3 -15 4 -23 19 -19 50 6 50 17 0 20 -4 15 -22z
m-42 -63 c3 -8 1 -15 -4 -15 -6 0 -10 7 -10 15 0 8 2 15 4 15 2 0 6 -7 10 -15z
m-223 -44 c13 -10 31 -16 39 -13 13 5 13 3 1 -11 -19 -23 -41 -21 -41 3 0 11
-4 20 -10 20 -5 0 -10 -4 -10 -10 0 -18 -18 -10 -23 10 -7 25 13 26 44 1z m79
-11 c0 -5 -5 -10 -11 -10 -5 0 -7 5 -4 10 3 6 8 10 11 10 2 0 4 -4 4 -10z
m-1120 -55 c0 -8 -7 -15 -15 -15 -26 0 -18 20 13 29 1 1 2 -6 2 -14z m110 7
c-8 -3 -18 -10 -22 -15 -4 -7 -12 -5 -21 4 -13 13 -10 15 22 16 20 0 29 -2 21
-5z m72 -23 c33 -17 51 -20 92 -15 28 4 69 9 91 12 l40 5 -40 -20 c-22 -11
-48 -20 -57 -21 -9 0 -20 -4 -23 -10 -10 -16 -25 -12 -19 5 4 8 1 15 -6 15 -8
0 -10 -9 -6 -24 3 -14 2 -28 -4 -31 -5 -3 -10 -1 -10 5 0 7 -7 10 -15 7 -11
-5 -12 -1 -5 19 9 24 8 25 -19 22 -16 -1 -36 4 -45 11 -14 12 -16 11 -16 -3 0
-20 -25 -48 -34 -39 -3 4 -6 1 -6 -5 0 -7 6 -12 12 -12 7 0 4 -8 -7 -19 -22
-20 -115 -37 -115 -21 0 6 14 10 30 10 17 0 30 4 30 10 0 5 7 7 15 4 8 -4 15
-1 15 6 0 7 13 28 30 46 17 20 27 40 24 49 -8 20 -1 19 48 -6z m-62 1 c0 -5
-5 -10 -11 -10 -5 0 -7 5 -4 10 3 6 8 10 11 10 2 0 4 -4 4 -10z m-51 -59 c-1
-13 -2 -13 -6 2 -2 9 -9 17 -14 17 -5 0 -9 5 -9 11 0 8 5 8 15 -1 8 -7 14 -20
14 -29z m-29 -1 c0 -5 -5 -10 -11 -10 -5 0 -7 5 -4 10 3 6 8 10 11 10 2 0 4
-4 4 -10z m122 -12 c-7 -7 -12 -8 -12 -2 0 14 12 26 19 19 2 -3 -1 -11 -7 -17z
m31 -45 c-3 -21 -9 -30 -17 -26 -7 5 -7 2 1 -8 8 -9 9 -20 3 -29 -8 -12 -10
-11 -11 5 0 14 -5 9 -14 -15 -11 -28 -14 -31 -14 -12 -1 21 47 128 53 120 2
-1 1 -18 -1 -35z m-218 -3 c3 -6 -1 -7 -9 -4 -18 7 -21 14 -7 14 6 0 13 -4 16
-10z m-25 -30 c0 -5 -5 -10 -11 -10 -5 0 -7 5 -4 10 3 6 8 10 11 10 2 0 4 -4
4 -10z m132 -2 c-5 -7 -12 -24 -15 -38 -3 -18 -5 -15 -6 13 -1 28 3 37 15 37
12 0 14 -3 6 -12z m39 -11 c-13 -13 -26 -3 -16 12 3 6 11 8 17 5 6 -4 6 -10
-1 -17z m428 -30 c1 -5 -3 -5 -9 -2 -5 3 -10 16 -9 28 0 21 1 21 9 2 5 -11 9
-24 9 -28z m998 11 c-3 -7 -5 -2 -5 12 0 14 2 19 5 13 2 -7 2 -19 0 -25z m160
-2 c-13 -14 -16 -14 -27 0 -11 12 -10 13 3 9 8 -4 18 -1 22 5 4 6 9 9 12 6 3
-3 -1 -12 -10 -20z m293 4 c0 -5 -7 -10 -15 -10 -8 0 -15 5 -15 10 0 6 7 10
15 10 8 0 15 -4 15 -10z m-1903 -42 c-3 -7 -5 -2 -5 12 0 14 2 19 5 13 2 -7 2
-19 0 -25z m472 -33 c0 -5 -4 -3 -9 5 -5 8 -9 22 -9 30 0 16 17 -16 18 -35z
m-512 13 c-3 -8 -6 -5 -6 6 -1 11 2 17 5 13 3 -3 4 -12 1 -19z m1996 1 c3 -12
10 -18 16 -14 6 3 11 2 11 -4 0 -5 15 -14 33 -21 17 -6 44 -27 60 -47 29 -39
29 -60 0 -24 -12 15 -30 22 -56 23 -20 1 -35 3 -32 6 2 3 -12 14 -33 24 -20
11 -46 29 -57 39 -17 17 -18 21 -5 29 26 17 57 11 63 -11z m-108 1 c3 -5 2
-10 -4 -10 -5 0 -13 5 -16 10 -3 6 -2 10 4 10 5 0 13 -4 16 -10z m-1785 -30
c0 -5 -6 -10 -14 -10 -7 0 -19 -7 -26 -15 -7 -8 -19 -15 -26 -15 -26 0 -14 15
24 32 45 21 42 20 42 8z m148 -27 c32 -15 37 -22 32 -42 -5 -23 -6 -23 -20 -5
-9 10 -10 15 -2 10 6 -4 12 -4 12 1 0 4 -37 7 -82 7 -46 -1 -66 0 -45 3 28 3
37 9 37 23 0 10 -6 21 -12 23 -7 2 -1 3 15 1 15 -2 44 -12 65 -21z m1392 -38
c0 -12 -3 -25 -7 -29 -4 -3 -8 -12 -10 -19 -1 -7 -7 -28 -13 -47 -8 -30 -9
-26 -5 29 3 35 5 78 5 95 1 29 1 30 15 12 8 -11 15 -29 15 -41z m125 35 c3 -5
2 -10 -4 -10 -5 0 -13 5 -16 10 -3 6 -2 10 4 10 5 0 13 -4 16 -10z m541 -8
c-3 -5 -16 -12 -28 -15 -22 -6 -22 -6 2 13 25 19 37 20 26 2z m-602 -4 c-3 -4
-11 -5 -19 -1 -21 7 -19 12 4 10 11 0 18 -5 15 -9z m-1699 -8 c-3 -5 -10 -10
-16 -10 -5 0 -9 5 -9 10 0 6 7 10 16 10 8 0 12 -4 9 -10z m1765 -10 c0 -5 -4
-10 -10 -10 -5 0 -10 5 -10 10 0 6 5 10 10 10 6 0 10 -4 10 -10z m-1725 -7
c-11 -2 -39 -10 -63 -18 -23 -8 -40 -10 -37 -5 8 12 63 28 95 28 19 0 21 -1 5
-5z m1668 -38 c-7 -21 -13 -19 -13 6 0 11 4 18 10 14 5 -3 7 -12 3 -20z
m-1491 -7 c-7 -7 -12 -22 -12 -35 0 -13 -4 -23 -9 -23 -6 0 -6 12 -1 30 11 37
20 53 28 45 3 -3 0 -11 -6 -17z m194 2 c48 -11 90 -23 95 -26 12 -7 2 -28 -21
-42 -18 -11 -21 -9 -30 13 -9 24 -30 35 -30 16 0 -5 -3 -17 -6 -25 -4 -11 -2
-15 8 -11 9 4 15 0 15 -9 0 -10 -5 -12 -16 -7 -9 5 -21 6 -28 4 -6 -2 -14 1
-18 6 -3 7 0 8 9 5 34 -13 13 12 -26 31 -23 11 -45 30 -49 43 -10 27 -11 27
97 2z m-407 -3 c-2 -1 -13 -9 -24 -17 -19 -14 -19 -14 -6 3 7 9 18 17 24 17 6
0 8 -1 6 -3z m126 -17 c3 -6 -1 -7 -9 -4 -18 7 -21 14 -7 14 6 0 13 -4 16 -10z
m143 4 c31 -9 27 -19 -8 -19 -17 0 -30 5 -30 13 0 14 5 14 38 6z m1426 -16
c-4 -7 -14 -21 -22 -30 -8 -10 -12 -28 -10 -43 3 -15 1 -25 -6 -25 -18 0 -18
56 -1 70 8 7 12 17 8 23 -3 5 -1 7 5 3 6 -3 13 -2 17 4 9 15 18 12 9 -2z m586
-9 c0 -6 -6 -7 -12 -3 -9 5 -8 2 1 -9 20 -26 6 -32 -23 -10 -28 20 -35 39 -11
30 8 -4 17 -2 20 4 7 11 25 2 25 -12z m-2450 1 c0 -5 -7 -7 -15 -4 -8 4 -15 8
-15 10 0 2 7 4 15 4 8 0 15 -4 15 -10z m414 -26 c3 -8 2 -12 -4 -9 -6 3 -10
10 -10 16 0 14 7 11 14 -7z m1470 0 c3 -8 2 -12 -4 -9 -6 3 -10 10 -10 16 0
14 7 11 14 -7z m-1675 3 c-2 -1 -13 -9 -24 -17 -19 -14 -19 -14 -6 3 7 9 18
17 24 17 6 0 8 -1 6 -3z m35 -12 c-6 -16 -24 -21 -24 -7 0 11 11 22 21 22 5 0
6 -7 3 -15z m1661 -15 c-3 -5 -12 -10 -18 -10 -7 0 -6 4 3 10 19 12 23 12 15
0z m-329 -28 c-18 -16 -18 -16 -6 6 6 13 14 21 18 18 3 -4 -2 -14 -12 -24z
m855 1 c-12 -20 -14 -14 -5 12 4 9 9 14 11 11 3 -2 0 -13 -6 -23z m-781 -6
c-30 -27 -113 -67 -137 -66 -10 0 -1 9 22 20 22 11 55 30 74 44 45 33 76 34
41 2z m-1318 -5 c-7 -2 -10 -8 -6 -13 3 -5 1 -9 -5 -9 -5 0 -9 9 -8 19 1 12 6
17 16 13 10 -4 11 -7 3 -10z m60 -2 c10 0 18 -4 18 -9 0 -15 -48 0 -55 18 -5
13 -4 14 6 4 7 -7 21 -13 31 -13z m1378 0 c0 -5 -4 -10 -10 -10 -5 0 -10 5
-10 10 0 6 5 10 10 10 6 0 10 -4 10 -10z m117 4 c-3 -3 -12 -4 -19 -1 -8 3 -5
6 6 6 11 1 17 -2 13 -5z m-1382 -14 c-3 -5 -12 -10 -18 -10 -7 0 -6 4 3 10 19
12 23 12 15 0z m523 -21 c2 -23 2 -23 -13 -5 -18 24 -20 39 -2 34 6 -3 13 -15
15 -29z m57 20 c11 -17 -1 -21 -15 -4 -8 9 -8 15 -2 15 6 0 14 -5 17 -11z
m-95 -13 c0 -7 7 -19 15 -26 8 -7 15 -18 15 -24 0 -6 -4 -5 -9 3 -5 7 -14 11
-20 7 -7 -4 -9 -1 -5 7 3 8 1 18 -5 22 -14 8 -14 25 -1 25 6 0 10 -6 10 -14z
m1445 -5 c-3 -6 -11 -8 -17 -5 -6 4 -5 9 3 15 16 10 23 4 14 -10z m-1471 -36
c7 -27 6 -29 -9 -14 -9 9 -13 23 -9 33 8 21 9 19 18 -19z m-584 1 c0 -2 -7 -7
-16 -10 -8 -3 -12 -2 -9 4 6 10 25 14 25 6z m1100 -18 c-15 -5 -27 -5 -34 2
-8 8 -6 9 5 5 10 -4 20 -1 24 4 3 6 11 8 17 5 7 -5 2 -11 -12 -16z m-65 2 c-4
-6 -11 -8 -16 -5 -5 3 -19 -3 -31 -14 -12 -12 -27 -21 -32 -21 -19 1 48 50 67
50 10 0 15 -5 12 -10z m-1101 -168 c-3 -86 -8 -159 -10 -161 -2 -2 -4 71 -4
163 0 111 3 165 10 161 7 -4 8 -61 4 -163z m1104 108 c-12 -35 -24 -45 -34
-29 -5 8 -3 9 6 4 10 -6 12 -3 8 12 -6 23 9 56 22 48 5 -3 4 -18 -2 -35z m102
-54 c0 -3 -4 -8 -10 -11 -5 -3 -10 -1 -10 4 0 6 5 11 10 11 6 0 10 -2 10 -4z
m-732 -32 c7 -14 8 -23 2 -19 -15 9 -32 45 -22 45 5 0 14 -12 20 -26z m811 -1
c-1 -23 -2 -24 -6 -6 -3 14 -13 23 -31 26 -24 4 -24 4 6 6 29 1 32 -2 31 -26z
m-12 -65 c-3 -8 -6 -5 -6 6 -1 11 2 17 5 13 3 -3 4 -12 1 -19z m3 -33 c0 -8
-4 -15 -10 -15 -5 0 -7 7 -4 15 4 8 8 15 10 15 2 0 4 -7 4 -15z m-19 -78 c-10
-9 -11 -8 -5 6 3 10 9 15 12 12 3 -3 0 -11 -7 -18z m-481 -20 c11 -4 9 -6 -5
-6 -22 -1 -45 16 -45 33 0 5 8 2 18 -6 9 -9 24 -18 32 -21z m187 7 c-3 -3 -12
-4 -19 -1 -8 3 -5 6 6 6 11 1 17 -2 13 -5z m630 -51 c-3 -10 -5 -2 -5 17 0 19
2 27 5 18 2 -10 2 -26 0 -35z m-253 -29 c9 -24 2 -26 -12 -4 -7 11 -8 20 -3
20 5 0 12 -7 15 -16z m-616 -31 c-10 -2 -26 -2 -35 0 -10 3 -2 5 17 5 19 0 27
-2 18 -5z m571 -85 c-1 -35 -2 -38 -8 -18 -7 23 -4 60 5 60 2 0 4 -19 3 -42z
m-592 6 c-3 -3 -12 -4 -19 -1 -8 3 -5 6 6 6 11 1 17 -2 13 -5z m650 -26 c-3
-8 -6 -5 -6 6 -1 11 2 17 5 13 3 -3 4 -12 1 -19z m-77 3 c0 -5 -9 -19 -20 -32
l-20 -24 17 32 c19 34 23 39 23 24z m529 -20 c21 -29 21 -30 4 -76 -16 -42
-23 -49 -68 -66 -27 -10 -57 -27 -65 -38 -9 -12 -34 -21 -65 -24 -27 -4 -68
-10 -89 -13 l-40 -7 20 30 c10 17 41 58 68 92 47 59 59 67 176 119 36 15 36
15 59 -17z m-586 -48 c-7 -2 -14 -19 -14 -36 -1 -25 -3 -27 -6 -9 -6 30 3 52
19 51 10 0 10 -2 1 -6z m-120 -10 c-7 -2 -21 -2 -30 0 -10 3 -4 5 12 5 17 0
24 -2 18 -5z m47 -3 c0 -5 -5 -10 -11 -10 -5 0 -7 5 -4 10 3 6 8 10 11 10 2 0
4 -4 4 -10z m-13 -132 c-2 -18 -4 -6 -4 27 0 33 2 48 4 33 2 -15 2 -42 0 -60z
m67 47 c-4 -8 -1 -15 6 -15 6 0 8 -4 5 -10 -3 -5 -10 -10 -16 -10 -10 0 -12
33 -2 43 10 11 13 8 7 -8z m616 -4 c11 -22 3 -54 -11 -45 -5 3 -6 10 -3 16 4
6 -1 8 -15 3 -24 -7 -26 -3 -9 25 16 25 25 25 38 1z m-60 -14 c0 -2 -16 -18
-35 -37 -25 -24 -35 -29 -35 -18 0 9 15 25 33 37 33 21 37 23 37 18z m-506
-53 c18 -7 12 -24 -10 -24 -8 0 -14 7 -14 15 0 17 2 18 24 9z m156 0 c0 -3
-10 -14 -22 -24 -19 -15 -21 -21 -10 -31 10 -11 12 -10 12 1 1 8 10 26 21 39
19 23 20 23 39 6 11 -10 20 -21 20 -24 0 -9 -59 -41 -75 -41 -8 0 -19 -8 -24
-19 -6 -10 -22 -21 -35 -23 -17 -3 -23 -1 -19 6 4 6 -1 5 -10 -3 -9 -7 -24
-11 -32 -7 -9 3 -32 -3 -53 -14 -20 -11 -45 -20 -54 -20 -11 0 -15 -5 -12 -15
4 -8 2 -15 -4 -15 -6 0 -17 -2 -24 -5 -9 -4 -14 2 -15 15 -1 13 6 22 23 26 13
3 24 9 24 13 0 8 86 36 141 46 32 6 36 11 47 51 10 37 16 44 37 44 14 0 25 -3
25 -6z m254 -11 c4 -9 1 -20 -5 -24 -6 -4 -10 -18 -7 -32 4 -21 2 -23 -16 -19
-11 3 -15 7 -8 10 17 5 15 39 -4 46 -18 7 -34 0 -34 -16 0 -5 7 -8 15 -4 8 3
15 2 15 -3 0 -5 -11 -11 -25 -13 -13 -3 -24 -2 -23 1 2 18 -3 31 -12 31 -5 0
-7 -7 -3 -16 5 -13 3 -14 -13 -6 -10 6 -28 17 -39 26 -19 14 -17 15 30 16 28
1 59 5 70 10 32 14 52 11 59 -7z m-449 -3 c-3 -5 -10 -10 -16 -10 -5 0 -9 5
-9 10 0 6 7 10 16 10 8 0 12 -4 9 -10z m500 -28 c-3 -3 -11 0 -18 7 -9 10 -8
11 6 5 10 -3 15 -9 12 -12z m-689 -32 c20 -8 24 -14 16 -22 -6 -6 -8 -17 -5
-24 3 -8 0 -14 -7 -14 -7 0 -10 -8 -7 -20 3 -10 2 -19 -2 -18 -3 1 -17 -4 -29
-11 -13 -7 -26 -10 -29 -7 -3 3 -15 0 -26 -5 -19 -11 -20 -9 -15 42 6 61 26
83 64 69 24 -10 35 4 12 13 -25 10 1 7 28 -3z m685 -27 c13 -17 13 -17 -6 -3
-11 8 -22 16 -24 17 -2 2 0 3 6 3 6 0 17 -8 24 -17z m-164 -14 c39 -12 50 -26
25 -33 -11 -4 -25 -19 -32 -34 l-13 -27 -9 28 c-12 33 -33 31 -34 -4 -1 -40
-4 -49 -13 -49 -5 0 -7 9 -4 20 3 11 0 20 -6 20 -6 0 -12 -8 -12 -17 -1 -17
-2 -17 -6 0 -2 9 -11 17 -19 17 -8 0 -14 5 -14 10 0 6 -8 10 -17 11 -15 0 -15
2 2 8 11 5 28 3 39 -3 14 -8 20 -8 23 2 3 7 17 18 32 23 23 9 24 11 9 20 -10
6 -18 15 -18 21 0 6 7 7 18 3 9 -4 31 -11 49 -16z m-450 -88 c2 -22 -30 -34
-48 -17 -9 8 -10 8 -6 0 8 -14 -39 -48 -53 -39 -6 3 -10 10 -10 14 0 11 70 42
81 35 5 -3 9 -2 8 3 -3 16 1 23 14 23 7 0 13 -9 14 -19z m311 3 c21 -6 22 -8
6 -25 -9 -10 -13 -23 -9 -28 9 -15 -1 -14 -17 2 -7 7 -24 17 -38 24 l-25 11
25 10 c31 13 30 13 58 6z m-678 -24 c0 -5 -2 -10 -4 -10 -3 0 -8 5 -11 10 -3
6 -1 10 4 10 6 0 11 -4 11 -10z"/>
<path d="M1369 2223 c-8 -9 -9 -14 -2 -10 6 4 19 0 27 -9 19 -19 21 -6 2 19
-13 16 -14 16 -27 0z"/>
<path d="M2270 1371 c0 -8 52 -22 58 -16 2 1 -11 7 -27 13 -17 6 -31 7 -31 3z"/>
<path d="M2140 490 c-8 -5 -12 -11 -9 -14 3 -3 14 1 25 9 21 16 8 20 -16 5z"/>
<path d="M2098 473 c-10 -2 -18 -9 -18 -14 0 -6 8 -5 20 1 11 6 20 13 20 15 0
3 -1 4 -2 4 -2 -1 -11 -3 -20 -6z"/>
<path d="M2078 388 c5 -5 16 -8 23 -6 8 3 3 7 -10 11 -17 4 -21 3 -13 -5z"/>
<path d="M334 2534 c4 -9 1 -24 -6 -33 -12 -14 -11 -15 5 -2 15 12 21 11 42
-9 30 -28 39 -22 25 16 -9 22 -13 25 -20 14 -7 -11 -11 -11 -24 -1 -9 7 -13
17 -10 22 3 5 0 9 -6 9 -7 0 -9 -7 -6 -16z"/>
<path d="M1376 1906 c18 -14 18 -15 2 -21 -26 -10 -22 -25 6 -25 16 0 26 7 29
22 8 29 1 38 -31 38 -25 0 -25 -1 -6 -14z"/>
<path d="M1457 1491 c6 -22 -12 -29 -20 -8 -4 10 -6 10 -6 0 -1 -7 -10 -13
-22 -13 -11 0 -17 -4 -14 -10 3 -5 0 -10 -8 -10 -8 0 -18 -8 -22 -17 -5 -15
-4 -16 6 -5 21 20 29 14 29 -23 0 -40 17 -46 45 -15 12 13 21 16 25 10 4 -6
14 -2 25 11 19 20 19 20 -7 14 -15 -4 -35 -2 -45 5 -16 10 -16 11 5 7 12 -3
36 1 52 10 36 18 38 22 6 16 -19 -4 -25 0 -28 18 -2 12 -8 24 -15 26 -7 3 -9
-3 -6 -16z m18 -31 c4 -6 -6 -10 -22 -9 -25 0 -26 1 -8 9 11 5 21 9 22 9 1 1
5 -3 8 -9z"/>
<path d="M1518 1493 c6 -2 18 -2 25 0 6 3 1 5 -13 5 -14 0 -19 -2 -12 -5z"/>
<path d="M1356 1474 c-6 -15 -4 -15 11 -3 10 7 20 15 22 16 2 2 -3 3 -11 3 -9
0 -19 -7 -22 -16z"/>
<path d="M1500 1365 c0 -9 6 -12 15 -9 8 4 15 7 15 9 0 2 -7 5 -15 9 -9 3 -15
0 -15 -9z"/>
<path d="M1450 1360 c0 -5 7 -7 15 -4 8 4 15 8 15 10 0 2 -7 4 -15 4 -8 0 -15
-4 -15 -10z"/>
<path d="M1558 1363 c6 -2 18 -2 25 0 6 3 1 5 -13 5 -14 0 -19 -2 -12 -5z"/>
<path d="M1394 1318 c9 -5 23 -5 32 0 12 6 7 9 -16 9 -23 0 -28 -3 -16 -9z"/>
<path d="M1447 1316 c-3 -8 -2 -18 3 -21 13 -8 24 15 12 27 -6 6 -11 4 -15 -6z"/>
<path d="M1310 1308 c0 -4 14 -8 30 -8 17 0 30 2 30 4 0 2 -13 6 -30 8 -16 3
-30 1 -30 -4z"/>
<path d="M1480 1310 c0 -6 15 -7 38 -4 51 8 53 14 4 14 -23 0 -42 -4 -42 -10z"/>
<path d="M2510 1290 c0 -6 7 -10 15 -10 8 0 15 2 15 4 0 2 -7 6 -15 10 -8 3
-15 1 -15 -4z"/>
<path d="M1435 1220 c3 -5 8 -10 11 -10 2 0 4 5 4 10 0 6 -5 10 -11 10 -5 0
-7 -4 -4 -10z"/>
<path d="M1290 1081 c-12 -24 -13 -34 -1 -27 9 6 22 46 15 46 -2 0 -8 -9 -14
-19z"/>
<path d="M1247 636 c-4 -10 -1 -13 9 -9 7 3 14 9 14 14 0 14 -17 10 -23 -5z"/>
<path d="M2366 372 c-3 -6 -2 -13 4 -17 7 -4 7 -12 0 -26 -7 -13 -7 -19 -1
-19 15 0 25 50 13 62 -6 6 -12 6 -16 0z"/>
<path d="M2328 363 c7 -3 16 -2 19 1 4 3 -2 6 -13 5 -11 0 -14 -3 -6 -6z"/>
<path d="M2457 292 c-30 -31 -34 -40 -25 -56 10 -18 3 -29 -25 -38 -12 -5 14
-70 40 -101 12 -16 24 -33 24 -38 1 -5 3 -13 4 -19 1 -5 3 -17 4 -25 1 -18 41
-21 41 -3 0 9 3 9 12 0 7 -7 25 -12 40 -12 22 0 28 5 28 21 0 15 -5 20 -22 17
-13 -2 -27 2 -33 8 -5 7 -20 15 -32 19 -19 5 -22 3 -17 -12 3 -10 -3 -4 -14
13 -11 17 -23 40 -26 52 -4 12 -10 22 -14 22 -4 0 -8 14 -9 30 -1 17 2 30 7
30 6 0 10 -15 10 -32 l1 -33 19 24 c11 13 20 31 20 40 0 9 6 23 13 30 10 11
10 14 0 18 -15 6 -17 33 -3 33 12 0 13 37 2 44 -5 3 -25 -12 -45 -32z"/>
<path d="M2326 295 c-11 -8 -15 -15 -9 -15 6 0 16 7 23 15 16 19 11 19 -14 0z"/>
<path d="M2370 273 c0 -13 5 -23 10 -23 13 0 13 11 0 30 -8 12 -10 11 -10 -7z"/>
<path d="M2346 224 c-8 -21 -4 -25 14 -14 11 7 12 12 4 20 -8 8 -13 7 -18 -6z"/>
<path d="M2342 165 c0 -16 2 -22 5 -12 2 9 2 23 0 30 -3 6 -5 -1 -5 -18z"/>
<path d="M2392 78 c3 -62 6 -73 22 -76 45 -9 49 66 6 115 l-31 35 3 -74z"/>
<path d="M2274 75 c12 -46 25 -75 36 -75 13 0 13 0 -10 54 -23 50 -36 61 -26
21z"/>
<path d="M2348 65 c-4 -16 -2 -34 3 -39 13 -14 16 -5 9 34 l-6 35 -6 -30z"/>
<path d="M1680 17 c0 -8 7 -14 15 -14 11 0 12 4 4 14 -6 7 -13 13 -15 13 -2 0
-4 -6 -4 -13z"/>
</g>
</svg>
